<svg width="1200" height="280" viewBox="0 0 1200 280" fill="none" xmlns="http://www.w3.org/2000/svg">
  <rect fill="#f6f8fa" width="1200" height="280"/>
  <rect fill="#ffffff" stroke="#d0d7de" x="20" y="20" width="1160" height="240" rx="6" stroke-width="1"/>
  <rect fill="#1f2328" x="20" y="20" width="1160" height="32" rx="6"/>
  <rect fill="#1f2328" x="20" y="40" width="1160" height="12"/>
  <text fill="#ffffff" font-family="ui-monospace, SFMono-Regular, 'SF Mono', Menlo, Consolas, monospace" font-size="12" font-weight="600" letter-spacing="1" x="40" y="42">HKIMW · PERSONAL ACCOUNT → PCCX AI ORG</text>
  <circle cx="1134" cy="36" r="5" fill="#ffffff" fill-opacity="0.25"/>
  <circle cx="1150" cy="36" r="5" fill="#ffffff" fill-opacity="0.25"/>
  <circle cx="1166" cy="36" r="5" fill="#ffffff" fill-opacity="0.25"/>
  <line stroke="#d0d7de" x1="40" y1="72" x2="1160" y2="72" stroke-width="1"/>
  <line stroke="#d0d7de" x1="40" y1="220" x2="1160" y2="220" stroke-width="1"/>
  <text fill="#1f2328" font-family="'Segoe UI', Ubuntu, 'Helvetica Neue', sans-serif" font-size="30" font-weight="700" letter-spacing="0.5" x="52" y="114">hkimw</text>
  <text fill="#656d76" font-family="'Segoe UI', Ubuntu, 'Helvetica Neue', sans-serif" font-size="14" font-weight="400" x="52" y="140">personal notes · baselines · website source</text>
  <text fill="#656d76" font-family="'Segoe UI', Ubuntu, 'Helvetica Neue', sans-serif" font-size="14" font-weight="400" x="52" y="162">pccxai org · FPGA NPU · LLM inference · verification tooling</text>
  <text fill="#656d76" font-family="ui-monospace, SFMono-Regular, 'SF Mono', Menlo, Consolas, monospace" font-size="12" font-weight="500" x="52" y="244">$ open github.com/pccxai</text>
  <text fill="#656d76" font-family="ui-monospace, SFMono-Regular, 'SF Mono', Menlo, Consolas, monospace" font-size="12" font-weight="500" x="640" y="244">SystemVerilog · C++ · Python · TypeScript · Rust</text>
  <g transform="translate(900, 80)">
    <polyline points="22,43 22,22 86,22 86,43" stroke-width="10" stroke-linecap="square" stroke-linejoin="miter" fill="none" stroke="#1f2328"/>
    <polyline points="22,69 22,90 86,90 86,69" stroke-width="10" stroke-linecap="square" stroke-linejoin="miter" fill="none" stroke="#1f2328"/>
    <rect fill="#2f80ed" x="45" y="0" width="18" height="112"/>
    <rect fill="#2f80ed" x="37" y="0" width="34" height="10"/>
    <rect fill="#2f80ed" x="37" y="102" width="34" height="10"/>
  </g>
  <text fill="#1f2328" font-family="'Segoe UI', Ubuntu, 'Helvetica Neue', sans-serif" font-size="52" font-weight="700" letter-spacing="1" x="1018" y="165">pccx</text>
</svg>
