<svg width="1200" height="280" viewBox="0 0 1200 280" fill="none" xmlns="http://www.w3.org/2000/svg">
  <!-- Card -->
  <rect fill="#ffffff" stroke="#d0d7de" x="20" y="20" width="1160" height="240" rx="6" stroke-width="1"/>
  <!-- Top bar (light) -->
  <rect fill="#f6f8fa" stroke="#d0d7de" stroke-width="1" x="20" y="20" width="1160" height="32" rx="6"/>
  <rect fill="#f6f8fa" x="20" y="40" width="1160" height="12"/>
  <line x1="20" y1="52" x2="1180" y2="52" stroke="#d0d7de" stroke-width="1"/>
  <text fill="#1f2328" font-family="ui-monospace,SFMono-Regular,'SF Mono',Menlo,Consolas,monospace" font-size="12" font-weight="600" letter-spacing="1" x="40" y="42">HKIMW · PERSONAL ACCOUNT</text>
  <circle cx="1134" cy="36" r="5" fill="#1f2328" fill-opacity="0.25"/>
  <circle cx="1150" cy="36" r="5" fill="#1f2328" fill-opacity="0.25"/>
  <circle cx="1166" cy="36" r="5" fill="#1f2328" fill-opacity="0.25"/>
  <!-- Dividers -->
  <line x1="40"  y1="72"  x2="1160" y2="72"  stroke="#d0d7de" stroke-width="1"/>
  <line x1="40"  y1="220" x2="1160" y2="220" stroke="#d0d7de" stroke-width="1"/>
  <line x1="450" y1="72"  x2="450"  y2="220" stroke="#d0d7de" stroke-width="1"/>
  <line x1="800" y1="72"  x2="800"  y2="220" stroke="#d0d7de" stroke-width="1"/>

  <!-- ─── STATS (x=40..450) ─── -->
  <text fill="#2f80ed" font-family="'Segoe UI',Ubuntu,Sans-Serif" font-size="15" font-weight="600" x="52" y="91">hkimw Personal Stats</text>
  <line x1="52" y1="99" x2="440" y2="99" stroke="#e4e2e2" stroke-width="1"/>

  <g transform="translate(52, 114)">
    <svg fill="#4c71f2" x="0" y="-14" viewBox="0 0 16 16" width="16" height="16"><path d="M8 .25a.75.75 0 0 1 .673.418l1.882 3.815 4.21.612a.75.75 0 0 1 .416 1.279l-3.046 2.97.719 4.192a.75.75 0 0 1-1.088.791L8 12.347l-3.766 1.98a.75.75 0 0 1-1.088-.79l.72-4.194L.818 6.374a.75.75 0 0 1 .416-1.28l4.21-.611L7.327.668A.75.75 0 0 1 8 .25Z"/></svg>
    <text fill="#434d58" font-family="'Segoe UI',Ubuntu,Sans-Serif" font-size="13" font-weight="600" x="22" y="0">Total Stars Earned:</text>
    <text fill="#434d58" font-family="'Segoe UI',Ubuntu,Sans-Serif" font-size="13" font-weight="600" x="210" y="0">9</text>
  </g>
  <g transform="translate(52, 135)">
    <svg fill="#4c71f2" x="0" y="-14" viewBox="0 0 16 16" width="16" height="16"><path fill-rule="evenodd" d="M1.643 3.143L.427 1.927A.25.25 0 000 2.104V5.75c0 .138.112.25.25.25h3.646a.25.25 0 00.177-.427L2.715 4.215a6.5 6.5 0 11-1.18 4.458.75.75 0 10-1.493.154 8.001 8.001 0 101.6-5.684zM7.75 4a.75.75 0 01.75.75v2.992l2.028.812a.75.75 0 01-.557 1.392l-2.5-1A.75.75 0 017 8.25v-3.5A.75.75 0 017.75 4z"/></svg>
    <text fill="#434d58" font-family="'Segoe UI',Ubuntu,Sans-Serif" font-size="13" font-weight="600" x="22" y="0">Total Commits:</text>
    <text fill="#434d58" font-family="'Segoe UI',Ubuntu,Sans-Serif" font-size="13" font-weight="600" x="210" y="0">978</text>
  </g>
  <g transform="translate(52, 156)">
    <svg fill="#4c71f2" x="0" y="-14" viewBox="0 0 16 16" width="16" height="16"><path d="M7.177 3.073L9.573.677A.25.25 0 0110 .854v4.792a.25.25 0 01-.427.177L7.177 3.427a.25.25 0 010-.354zM3.75 2.5a.75.75 0 100 1.5.75.75 0 000-1.5zm-2.25.75a2.25 2.25 0 113 2.122v5.256a2.251 2.251 0 11-1.5 0V5.372A2.25 2.25 0 011.5 3.25zM11 2.5h-1V4h1a1 1 0 011 1v5.628a2.251 2.251 0 101.5 0V5A2.5 2.5 0 0011 2.5zm1 10.25a.75.75 0 111.5 0 .75.75 0 01-1.5 0zM3.75 12a.75.75 0 100 1.5.75.75 0 000-1.5z"/></svg>
    <text fill="#434d58" font-family="'Segoe UI',Ubuntu,Sans-Serif" font-size="13" font-weight="600" x="22" y="0">Total PRs:</text>
    <text fill="#434d58" font-family="'Segoe UI',Ubuntu,Sans-Serif" font-size="13" font-weight="600" x="210" y="0">88</text>
  </g>
  <g transform="translate(52, 177)">
    <svg fill="#4c71f2" x="0" y="-14" viewBox="0 0 16 16" width="16" height="16"><path d="M8 9.5a1.5 1.5 0 1 0 0-3 1.5 1.5 0 0 0 0 3Z"/><path d="M8 0a8 8 0 1 1 0 16A8 8 0 0 1 8 0ZM1.5 8a6.5 6.5 0 1 0 13 0 6.5 6.5 0 0 0-13 0Z"/></svg>
    <text fill="#434d58" font-family="'Segoe UI',Ubuntu,Sans-Serif" font-size="13" font-weight="600" x="22" y="0">Total Issues:</text>
    <text fill="#434d58" font-family="'Segoe UI',Ubuntu,Sans-Serif" font-size="13" font-weight="600" x="210" y="0">43</text>
  </g>
  <!-- Rank circle (GitHub icon, ~42% fill = rank B) -->
  <circle cx="395" cy="145" r="36" stroke="#4c71f2" fill="none" stroke-width="5" opacity="0.2"/>
  <circle cx="395" cy="145" r="36" stroke="#4c71f2" fill="none" stroke-width="5" stroke-dasharray="226.19" stroke-dashoffset="130.53" stroke-linecap="round" opacity="0.8" transform="rotate(-90, 395, 145)"/>
  <svg fill="#434d58" x="375" y="125" height="40" width="40" viewBox="0 0 16 16">
    <path d="M8 0c4.42 0 8 3.58 8 8a8.013 8.013 0 0 1-5.45 7.59c-.4.08-.55-.17-.55-.38 0-.27.01-1.13.01-2.2 0-.75-.25-1.23-.54-1.48 1.78-.2 3.65-.88 3.65-3.95 0-.88-.31-1.59-.82-2.15.08-.2.36-1.02-.08-2.12 0 0-.67-.22-2.2.82-.64-.18-1.32-.27-2-.27-.68 0-1.36.09-2 .27-1.53-1.03-2.2-.82-2.2-.82-.44 1.1-.16 1.92-.08 2.12-.51.56-.82 1.28-.82 2.15 0 3.06 1.86 3.75 3.64 3.95-.23.2-.44.55-.51 1.07-.46.21-1.61.55-2.33-.66-.15-.24-.6-.83-1.23-.82-.67.01-.27.38.01.53.34.19.73.9.82 1.13.16.45.68 1.31 2.69.94 0 .67.01 1.3.01 1.49 0 .21-.15.45-.55.38A7.995 7.995 0 0 1 0 8c0-4.42 3.58-8 8-8Z"/>
  </svg>

  <!-- ─── LANGUAGES (x=450..800) ─── -->
  <defs>
    <mask id="bar-l">
      <rect x="465" y="105" width="310" height="8" fill="white" rx="4"/>
    </mask>
  </defs>
  <text fill="#2f80ed" font-family="'Segoe UI',Ubuntu,Sans-Serif" font-size="15" font-weight="600" x="465" y="91">Most Used Languages</text>
  <line x1="465" y1="99" x2="788" y2="99" stroke="#e4e2e2" stroke-width="1"/>
  <rect x="465" y="105" width="310" height="8" rx="4" fill="#e4e2e2"/>
  <rect mask="url(#bar-l)" x="465.00" y="105" width="98.79"  height="8" fill="#e34c26"/>
  <rect mask="url(#bar-l)" x="563.79" y="105" width="87.82"  height="8" fill="#3572a5"/>
  <rect mask="url(#bar-l)" x="651.61" y="105" width="52.34"  height="8" fill="#fcb32c"/>
  <rect mask="url(#bar-l)" x="703.95" y="105" width="38.22"  height="8" fill="#f34b7d"/>
  <rect mask="url(#bar-l)" x="742.17" y="105" width="32.83"  height="8" fill="#f1e05a"/>
  <!-- Left legend -->
  <circle cx="470" cy="128" r="5" fill="#e34c26"/>
  <text fill="#434d58" font-family="'Segoe UI',Ubuntu,Sans-Serif" font-size="11" x="482" y="132">HTML 31.87%</text>
  <circle cx="470" cy="153" r="5" fill="#3572a5"/>
  <text fill="#434d58" font-family="'Segoe UI',Ubuntu,Sans-Serif" font-size="11" x="482" y="157">Python 28.33%</text>
  <circle cx="470" cy="178" r="5" fill="#fcb32c"/>
  <text fill="#434d58" font-family="'Segoe UI',Ubuntu,Sans-Serif" font-size="11" x="482" y="182">MDX 16.88%</text>
  <!-- Right legend -->
  <circle cx="635" cy="128" r="5" fill="#f34b7d"/>
  <text fill="#434d58" font-family="'Segoe UI',Ubuntu,Sans-Serif" font-size="11" x="647" y="132">C++ 12.33%</text>
  <circle cx="635" cy="153" r="5" fill="#f1e05a"/>
  <text fill="#434d58" font-family="'Segoe UI',Ubuntu,Sans-Serif" font-size="11" x="647" y="157">JavaScript 10.59%</text>



  <!-- Bottom info -->
  <text fill="#656d76" font-family="ui-monospace,SFMono-Regular,'SF Mono',Menlo,Consolas,monospace" font-size="11" x="52"  y="244">$ open github.com/hkimw</text>
  <text fill="#656d76" font-family="ui-monospace,SFMono-Regular,'SF Mono',Menlo,Consolas,monospace" font-size="11" x="640" y="244">HTML · Python · MDX · C++ · JavaScript</text>
</svg>
