<svg width="1200" height="760" viewBox="0 0 1200 760" fill="none" xmlns="http://www.w3.org/2000/svg" role="img" aria-labelledby="title desc">
  <title id="title">hkimw classic system profile</title>
  <desc id="desc">A monochrome classic Macintosh style profile window for hkimw.</desc>
  <defs>
    <style>
      .ui { font-family: Chicago, Charcoal, "Geneva", "Helvetica Neue", Arial, sans-serif; }
      .mono { font-family: Monaco, "Courier New", ui-monospace, monospace; }
      .text { fill: #000000; }
      .soft { fill: #444444; }
      .small { font-size: 17px; }
      .tiny { font-size: 14px; }
    </style>
    <pattern id="desktop" width="8" height="8" patternUnits="userSpaceOnUse">
      <rect width="8" height="8" fill="#b7b7b7"/>
      <rect width="4" height="4" fill="#8f8f8f"/>
      <rect x="4" y="4" width="4" height="4" fill="#8f8f8f"/>
    </pattern>
    <pattern id="bar-empty" width="6" height="6" patternUnits="userSpaceOnUse">
      <rect width="6" height="6" fill="#777777"/>
      <path d="M0 6L6 0" stroke="#000000" stroke-width="1"/>
    </pattern>
    <pattern id="title-stripes" width="6" height="6" patternUnits="userSpaceOnUse">
      <rect width="6" height="6" fill="#ffffff"/>
      <path d="M0 1H6M0 4H6" stroke="#000000" stroke-width="1"/>
    </pattern>
    <pattern id="shade" width="4" height="4" patternUnits="userSpaceOnUse">
      <rect width="4" height="4" fill="#d8d8d8"/>
      <rect width="2" height="2" fill="#ffffff"/>
      <rect x="2" y="2" width="2" height="2" fill="#ffffff"/>
    </pattern>
  </defs>

  <rect width="1200" height="760" fill="url(#desktop)"/>

  <rect x="0" y="0" width="1200" height="30" fill="#ffffff"/>
  <line x1="0" y1="30" x2="1200" y2="30" stroke="#000000" stroke-width="2"/>
  <text class="ui text" x="22" y="21" font-size="17" font-weight="700">hkimw</text>
  <text class="ui text" x="112" y="21" font-size="17">File</text>
  <text class="ui text" x="170" y="21" font-size="17">Edit</text>
  <text class="ui text" x="228" y="21" font-size="17">View</text>
  <text class="ui text" x="294" y="21" font-size="17">Special</text>

  <g transform="translate(34 64)">
    <rect x="10" y="10" width="716" height="284" fill="#000000"/>
    <rect x="0" y="0" width="716" height="284" fill="#ffffff" stroke="#000000" stroke-width="2"/>
    <rect x="2" y="2" width="712" height="29" fill="url(#title-stripes)"/>
    <rect x="271" y="3" width="174" height="27" fill="#ffffff"/>
    <text class="ui text" x="288" y="23" font-size="17" font-weight="700">hkimw Profile</text>
    <rect x="12" y="11" width="12" height="12" fill="#ffffff" stroke="#000000" stroke-width="2"/>
    <rect x="688" y="10" width="14" height="14" fill="#ffffff" stroke="#000000" stroke-width="2"/>
    <line x1="692" y1="17" x2="698" y2="17" stroke="#000000" stroke-width="2"/>

    <text class="ui text" x="24" y="62" font-size="17" font-weight="700">4 items</text>
    <text class="ui text" x="270" y="62" font-size="17">227K in profile</text>
    <text class="ui text" x="548" y="62" font-size="17">173K available</text>
    <line x1="16" y1="72" x2="700" y2="72" stroke="#000000"/>

    <g transform="translate(48 103)">
      <rect x="6" y="22" width="42" height="34" fill="#ffffff" stroke="#000000" stroke-width="2"/>
      <rect x="14" y="14" width="42" height="34" fill="#ffffff" stroke="#000000" stroke-width="2"/>
      <text class="ui text" x="-8" y="84" font-size="16">System Folder</text>
    </g>

    <g transform="translate(221 102)">
      <rect x="5" y="17" width="54" height="38" fill="#ffffff" stroke="#000000" stroke-width="2"/>
      <path d="M5 17H22L28 10H48L59 17" stroke="#000000" stroke-width="2" fill="#ffffff"/>
      <text class="ui text" x="1" y="84" font-size="16">pccxai</text>
    </g>

    <g transform="translate(370 102)">
      <rect x="5" y="17" width="54" height="38" fill="#ffffff" stroke="#000000" stroke-width="2"/>
      <path d="M5 17H22L28 10H48L59 17" stroke="#000000" stroke-width="2" fill="#ffffff"/>
      <text class="ui text" x="9" y="84" font-size="16">pccx</text>
    </g>

    <g transform="translate(511 100)">
      <path d="M28 6L56 34L28 62L0 34Z" fill="#ffffff" stroke="#000000" stroke-width="2"/>
      <path d="M22 28H34V16L48 34L34 52V40H22Z" fill="#000000"/>
      <text class="ui text" x="-7" y="88" font-size="16">Notes Alias</text>
    </g>

    <text class="mono soft" x="24" y="260" font-size="14">FPGA NPU / edge LLM inference</text>
  </g>

  <g transform="translate(458 248)">
    <rect x="10" y="10" width="682" height="402" fill="#000000"/>
    <rect x="0" y="0" width="682" height="402" fill="#ffffff" stroke="#000000" stroke-width="2"/>
    <rect x="2" y="2" width="678" height="29" fill="url(#title-stripes)"/>
    <rect x="259" y="3" width="166" height="27" fill="#ffffff"/>
    <text class="ui text" x="260" y="23" font-size="17" font-weight="700">Repository Stats</text>
    <rect x="12" y="11" width="12" height="12" fill="#ffffff" stroke="#000000" stroke-width="2"/>
    <rect x="654" y="10" width="14" height="14" fill="#ffffff" stroke="#000000" stroke-width="2"/>

    <text class="ui text" x="20" y="62" font-size="17" font-weight="700">12 values</text>
    <text class="ui text" x="250" y="62" font-size="17">hkimw + pccxai</text>
    <text class="ui text" x="518" y="62" font-size="17">173K available</text>
    <line x1="16" y1="72" x2="666" y2="72" stroke="#000000"/>

    <rect x="28" y="94" width="288" height="208" fill="#ffffff" stroke="#000000"/>
    <rect x="40" y="108" width="264" height="33" fill="url(#shade)" stroke="#000000"/>
    <text class="ui text" x="58" y="131" font-size="17" font-weight="700">Personal Account</text>
    <text class="mono text" x="58" y="169" font-size="20">★ x9</text>
    <text class="mono soft" x="166" y="169" font-size="15">stars earned</text>
    <text class="mono text" x="58" y="205" font-size="20">↻ x978</text>
    <text class="mono soft" x="166" y="205" font-size="15">commits</text>
    <text class="mono text" x="58" y="241" font-size="20">◆ x88</text>
    <text class="mono soft" x="166" y="241" font-size="15">pull requests</text>
    <text class="mono text" x="58" y="277" font-size="20">! x43</text>
    <text class="mono soft" x="166" y="277" font-size="15">issues</text>

    <rect x="352" y="94" width="294" height="208" fill="#ffffff" stroke="#000000"/>
    <rect x="364" y="108" width="270" height="33" fill="url(#shade)" stroke="#000000"/>
    <text class="ui text" x="382" y="131" font-size="17" font-weight="700">PCCX AI Org</text>
    <text class="mono text" x="382" y="169" font-size="20">★ x13</text>
    <text class="mono soft" x="504" y="169" font-size="15">stars</text>
    <text class="mono text" x="382" y="205" font-size="20">⑂ x3</text>
    <text class="mono soft" x="504" y="205" font-size="15">forks</text>
    <text class="mono text" x="382" y="241" font-size="20">▣ x5</text>
    <text class="mono soft" x="504" y="241" font-size="15">public repos</text>
    <text class="mono text" x="382" y="277" font-size="20">! x30</text>
    <text class="mono soft" x="504" y="277" font-size="15">open issues</text>

    <rect x="28" y="322" width="618" height="48" fill="url(#shade)" stroke="#000000"/>
    <text class="mono text" x="46" y="351" font-size="15">Legend: ★ stars / ⑂ forks / ▣ repos / ◆ PRs / ↻ commits / ! issues</text>
  </g>

  <g transform="translate(78 426)">
    <rect x="8" y="8" width="350" height="182" fill="#000000"/>
    <rect x="0" y="0" width="350" height="182" fill="#ffffff" stroke="#000000" stroke-width="2"/>
    <rect x="2" y="2" width="346" height="29" fill="url(#title-stripes)"/>
    <rect x="125" y="3" width="102" height="27" fill="#ffffff"/>
    <text class="ui text" x="140" y="23" font-size="17" font-weight="700">Routes</text>
    <line x1="16" y1="52" x2="334" y2="52" stroke="#000000"/>

    <text class="mono text" x="28" y="82" font-size="16">org</text>
    <text class="mono text" x="112" y="82" font-size="16">github.com/pccxai</text>
    <text class="mono text" x="28" y="112" font-size="16">npu</text>
    <text class="mono text" x="112" y="112" font-size="16">pccxai/pccx</text>
    <text class="mono text" x="28" y="142" font-size="16">notes</text>
    <text class="mono text" x="112" y="142" font-size="16">hkimw.pages.dev</text>
    <text class="mono text" x="28" y="172" font-size="16">blog</text>
    <text class="mono text" x="112" y="172" font-size="16">engineer log</text>
  </g>

  <g transform="translate(862 58)">
    <rect x="16" y="22" width="58" height="72" fill="#ffffff" stroke="#000000" stroke-width="2"/>
    <rect x="26" y="34" width="38" height="36" fill="url(#shade)" stroke="#000000"/>
    <line x1="26" y1="79" x2="64" y2="79" stroke="#000000" stroke-width="2"/>
    <text class="ui text" x="0" y="124" font-size="16">System Notes</text>
  </g>

  <g transform="translate(1008 58)">
    <rect x="5" y="17" width="64" height="44" fill="#ffffff" stroke="#000000" stroke-width="2"/>
    <path d="M5 17H25L32 9H56L69 17" stroke="#000000" stroke-width="2" fill="#ffffff"/>
    <text class="ui text" x="-5" y="91" font-size="16">PCCX Lab</text>
  </g>

  <g transform="translate(770 78)">
    <rect x="0" y="0" width="72" height="72" fill="#ffffff" stroke="#000000" stroke-width="2"/>
    <polyline points="18,28 18,18 54,18 54,28" stroke="#000000" stroke-width="4" stroke-linecap="square" stroke-linejoin="miter"/>
    <polyline points="18,44 18,54 54,54 54,44" stroke="#000000" stroke-width="4" stroke-linecap="square" stroke-linejoin="miter"/>
    <rect x="32" y="8" width="8" height="56" fill="#000000"/>
    <rect x="30" y="8" width="12" height="4" fill="#000000"/>
    <rect x="30" y="60" width="12" height="4" fill="#000000"/>
    <text class="ui text" x="1" y="100" font-size="16">PCCX AI</text>
  </g>

  <g transform="translate(1018 664)">
    <path d="M16 12H62L56 78H22Z" fill="#ffffff" stroke="#000000" stroke-width="2"/>
    <path d="M24 12V4H54V12" stroke="#000000" stroke-width="2" fill="none"/>
    <line x1="28" y1="24" x2="32" y2="68" stroke="#000000"/>
    <line x1="39" y1="24" x2="39" y2="68" stroke="#000000"/>
    <line x1="50" y1="24" x2="46" y2="68" stroke="#000000"/>
    <text class="ui text" x="13" y="104" font-size="16">Trash</text>
  </g>
</svg>
