<svg width="1200" height="280" viewBox="0 0 1200 280" fill="none" xmlns="http://www.w3.org/2000/svg">
  <rect fill="#161b22" width="1200" height="280"/>
  <rect fill="#21262d" stroke="#30363d" x="20" y="20" width="1160" height="240" rx="6" stroke-width="1"/>
  <rect fill="#e6edf3" x="20" y="20" width="1160" height="32" rx="6"/>
  <rect fill="#e6edf3" x="20" y="40" width="1160" height="12"/>
  <text fill="#21262d" font-family="ui-monospace,SFMono-Regular,'SF Mono',Menlo,Consolas,monospace" font-size="12" font-weight="600" letter-spacing="1" x="40" y="42">PCCX AI · ORGANIZATION</text>
  <circle cx="1134" cy="36" r="5" fill="#21262d" fill-opacity="0.35"/>
  <circle cx="1150" cy="36" r="5" fill="#21262d" fill-opacity="0.35"/>
  <circle cx="1166" cy="36" r="5" fill="#21262d" fill-opacity="0.35"/>
  <line x1="40"  y1="72"  x2="1160" y2="72"  stroke="#30363d" stroke-width="1"/>
  <line x1="40"  y1="220" x2="1160" y2="220" stroke="#30363d" stroke-width="1"/>
  <line x1="450" y1="72"  x2="450"  y2="220" stroke="#30363d" stroke-width="1"/>
  <line x1="800" y1="72"  x2="800"  y2="220" stroke="#30363d" stroke-width="1"/>

  <text fill="#79c0ff" font-family="'Segoe UI',Ubuntu,Sans-Serif" font-size="15" font-weight="600" x="52" y="91">PCCX AI Org Stats</text>
  <line x1="52" y1="99" x2="440" y2="99" stroke="#30363d" stroke-width="1"/>

  <g transform="translate(52, 114)">
    <svg fill="#79c0ff" x="0" y="-14" viewBox="0 0 16 16" width="16" height="16"><path d="M8 .25a.75.75 0 0 1 .673.418l1.882 3.815 4.21.612a.75.75 0 0 1 .416 1.279l-3.046 2.97.719 4.192a.75.75 0 0 1-1.088.791L8 12.347l-3.766 1.98a.75.75 0 0 1-1.088-.79l.72-4.194L.818 6.374a.75.75 0 0 1 .416-1.28l4.21-.611L7.327.668A.75.75 0 0 1 8 .25Z"/></svg>
    <text fill="#cdd9e5" font-family="'Segoe UI',Ubuntu,Sans-Serif" font-size="13" font-weight="600" x="22" y="0">Total Stars:</text>
    <text fill="#cdd9e5" font-family="'Segoe UI',Ubuntu,Sans-Serif" font-size="13" font-weight="600" x="210" y="0">13</text>
  </g>
  <g transform="translate(52, 135)">
    <svg fill="#79c0ff" x="0" y="-14" viewBox="0 0 16 16" width="16" height="16"><path d="M5 5.372v.878c0 .414.336.75.75.75h4.5a.75.75 0 0 0 .75-.75v-.878a2.25 2.25 0 1 1 1.5 0v.878a2.25 2.25 0 0 1-2.25 2.25h-1.5v2.128a2.251 2.251 0 1 1-1.5 0V8.5h-1.5A2.25 2.25 0 0 1 3.5 6.25v-.878a2.25 2.25 0 1 1 1.5 0ZM5 3.25a.75.75 0 1 0-1.5 0 .75.75 0 0 0 1.5 0Zm6.75.75a.75.75 0 1 0 0-1.5.75.75 0 0 0 0 1.5Zm-3 8.75a.75.75 0 1 0-1.5 0 .75.75 0 0 0 1.5 0Z"/></svg>
    <text fill="#cdd9e5" font-family="'Segoe UI',Ubuntu,Sans-Serif" font-size="13" font-weight="600" x="22" y="0">Total Forks:</text>
    <text fill="#cdd9e5" font-family="'Segoe UI',Ubuntu,Sans-Serif" font-size="13" font-weight="600" x="210" y="0">3</text>
  </g>
  <g transform="translate(52, 156)">
    <svg fill="#79c0ff" x="0" y="-14" viewBox="0 0 16 16" width="16" height="16"><path d="M2 2.5A2.5 2.5 0 0 1 4.5 0h8.75a.75.75 0 0 1 .75.75v12.5a.75.75 0 0 1-.75.75h-2.5a.75.75 0 0 1 0-1.5h1.75v-2h-8a1 1 0 0 0-.714 1.7.75.75 0 1 1-1.072 1.05A2.495 2.495 0 0 1 2 11.5Zm10.5-1h-8a1 1 0 0 0-1 1v6.708A2.486 2.486 0 0 1 4.5 9h8Z"/></svg>
    <text fill="#cdd9e5" font-family="'Segoe UI',Ubuntu,Sans-Serif" font-size="13" font-weight="600" x="22" y="0">Public Repos:</text>
    <text fill="#cdd9e5" font-family="'Segoe UI',Ubuntu,Sans-Serif" font-size="13" font-weight="600" x="210" y="0">5</text>
  </g>
  <g transform="translate(52, 177)">
    <svg fill="#79c0ff" x="0" y="-14" viewBox="0 0 16 16" width="16" height="16"><path d="M8 9.5a1.5 1.5 0 1 0 0-3 1.5 1.5 0 0 0 0 3Z"/><path d="M8 0a8 8 0 1 1 0 16A8 8 0 0 1 8 0ZM1.5 8a6.5 6.5 0 1 0 13 0 6.5 6.5 0 0 0-13 0Z"/></svg>
    <text fill="#cdd9e5" font-family="'Segoe UI',Ubuntu,Sans-Serif" font-size="13" font-weight="600" x="22" y="0">Open Issues:</text>
    <text fill="#cdd9e5" font-family="'Segoe UI',Ubuntu,Sans-Serif" font-size="13" font-weight="600" x="210" y="0">30</text>
  </g>
  <circle cx="395" cy="145" r="36" stroke="#79c0ff" fill="none" stroke-width="5" opacity="0.2"/>
  <circle cx="395" cy="145" r="36" stroke="#79c0ff" fill="none" stroke-width="5" stroke-dasharray="226.19" stroke-dashoffset="67.86" stroke-linecap="round" opacity="0.8" transform="rotate(-90, 395, 145)"/>
  <svg fill="#cdd9e5" x="375" y="125" height="40" width="40" viewBox="0 0 16 16">
    <path d="M1.5 14.25c0 .138.112.25.25.25H4v-1.25a.75.75 0 0 1 .75-.75h2.5a.75.75 0 0 1 .75.75v1.25h2.25a.25.25 0 0 0 .25-.25V1.75a.25.25 0 0 0-.25-.25h-8.5a.25.25 0 0 0-.25.25Zm3.75.25v-1.25H5.5V14.5H3.25a1.75 1.75 0 0 1-1.75-1.75V1.75C1.5.784 2.284 0 3.25 0h8.5c.966 0 1.75.784 1.75 1.75v10.5A1.75 1.75 0 0 1 11.75 14H9.5v-1.25a.75.75 0 0 1-.75-.75h-2.5a.75.75 0 0 1 .75.75V14.5Z"/>
  </svg>

  <defs>
    <mask id="bar-pd">
      <rect x="465" y="105" width="310" height="8" fill="white" rx="4"/>
    </mask>
  </defs>
  <text fill="#79c0ff" font-family="'Segoe UI',Ubuntu,Sans-Serif" font-size="15" font-weight="600" x="465" y="91">Most Used Languages</text>
  <line x1="465" y1="99" x2="788" y2="99" stroke="#30363d" stroke-width="1"/>
  <rect x="465" y="105" width="310" height="8" rx="4" fill="#2d333b"/>
  <rect mask="url(#bar-pd)" x="465.00" y="105" width="113.24" height="8" fill="#3178c6"/>
  <rect mask="url(#bar-pd)" x="578.24" y="105" width="99.91"  height="8" fill="#dea584"/>
  <rect mask="url(#bar-pd)" x="678.15" y="105" width="69.78"  height="8" fill="#2d7fbb"/>
  <rect mask="url(#bar-pd)" x="747.93" y="105" width="16.09"  height="8" fill="#008080"/>
  <rect mask="url(#bar-pd)" x="764.02" y="105" width="10.94"  height="8" fill="#3572a5"/>
  <circle cx="470" cy="128" r="5" fill="#3178c6"/>
  <text fill="#cdd9e5" font-family="'Segoe UI',Ubuntu,Sans-Serif" font-size="11" x="482" y="132">TypeScript 36.53%</text>
  <circle cx="470" cy="153" r="5" fill="#dea584"/>
  <text fill="#cdd9e5" font-family="'Segoe UI',Ubuntu,Sans-Serif" font-size="11" x="482" y="157">Rust 32.23%</text>
  <circle cx="470" cy="178" r="5" fill="#2d7fbb"/>
  <text fill="#cdd9e5" font-family="'Segoe UI',Ubuntu,Sans-Serif" font-size="11" x="482" y="182">SystemVerilog 22.51%</text>
  <circle cx="635" cy="128" r="5" fill="#008080"/>
  <text fill="#cdd9e5" font-family="'Segoe UI',Ubuntu,Sans-Serif" font-size="11" x="647" y="132">TeX 5.19%</text>
  <circle cx="635" cy="153" r="5" fill="#3572a5"/>
  <text fill="#cdd9e5" font-family="'Segoe UI',Ubuntu,Sans-Serif" font-size="11" x="647" y="157">Python 3.53%</text>

  <g transform="translate(840, 76)" opacity="0.25">
    <polyline points="28,54 28,28 108,28 108,54" stroke-width="5" stroke-linecap="square" stroke-linejoin="miter" fill="none" stroke="#e6edf3"/>
    <polyline points="28,86 28,112 108,112 108,86" stroke-width="5" stroke-linecap="square" stroke-linejoin="miter" fill="none" stroke="#e6edf3"/>
    <rect fill="#e6edf3" x="62" y="10" width="16" height="120"/>
    <rect fill="#e6edf3" x="59" y="10" width="22" height="6"/>
    <rect fill="#e6edf3" x="59" y="124" width="22" height="6"/>
  </g>
  <text fill="#e6edf3" font-family="'Segoe UI',Ubuntu,'Helvetica Neue',sans-serif" font-size="52" font-weight="700" letter-spacing="1" x="948" y="165" opacity="0.25">pccx</text>

  <text fill="#848d97" font-family="ui-monospace,SFMono-Regular,'SF Mono',Menlo,Consolas,monospace" font-size="11" x="52"  y="244">$ open github.com/pccxai</text>
  <text fill="#848d97" font-family="ui-monospace,SFMono-Regular,'SF Mono',Menlo,Consolas,monospace" font-size="11" x="640" y="244">TypeScript · Rust · SystemVerilog · TeX · Python</text>
</svg>
