<svg width="300" height="165" viewBox="0 0 300 165" fill="none" xmlns="http://www.w3.org/2000/svg" role="img">
  <title>PCCX AI Most Used Languages</title>
  <rect x="0.5" y="0.5" rx="4.5" height="99%" stroke="#444c56" width="299" fill="#1e2533" stroke-opacity="1"/>
  <g transform="translate(25, 35)">
    <svg fill="#79c0ff" x="0" y="-14" viewBox="0 0 16 16" width="18" height="18"><path d="M1.5 1.75v11.5c0 .138.112.25.25.25h.75v-11.5a.25.25 0 0 0-.25-.25ZM0 1.75C0 .784.784 0 1.75 0h12.5C15.216 0 16 .784 16 1.75v11.5A1.75 1.75 0 0 1 14.25 15h-12.5A1.75 1.75 0 0 1 0 13.25ZM4 3.5a.5.5 0 0 1 .5-.5h7a.5.5 0 0 1 0 1h-7a.5.5 0 0 1-.5-.5Zm0 3a.5.5 0 0 1 .5-.5h5a.5.5 0 0 1 0 1h-5a.5.5 0 0 1-.5-.5Zm0 3a.5.5 0 0 1 .5-.5h3a.5.5 0 0 1 0 1h-3a.5.5 0 0 1-.5-.5Z"/></svg>
    <text fill="#79c0ff" font-family="'Segoe UI',Ubuntu,Sans-Serif" font-size="18" font-weight="600" x="25" y="0">Most Used Languages</text>
  </g>
  <g transform="translate(0, 55)">
    <svg x="25">
      <mask id="bar-mask-d">
        <rect x="0" y="0" width="250" height="8" fill="white" rx="5"/>
      </mask>
      <rect mask="url(#bar-mask-d)" x="0.00" y="0" width="89.67" height="8" fill="#3178c6"/>
      <rect mask="url(#bar-mask-d)" x="89.67" y="0" width="81.34" height="8" fill="#dea584"/>
      <rect mask="url(#bar-mask-d)" x="171.00" y="0" width="55.32" height="8" fill="#2d7fbb"/>
      <rect mask="url(#bar-mask-d)" x="226.33" y="0" width="12.84" height="8" fill="#008080"/>
      <rect mask="url(#bar-mask-d)" x="239.17" y="0" width="10.83" height="8" fill="#e34c26"/>
      <g transform="translate(0, 25)">
        <g transform="translate(0, 0)">
          <g transform="translate(0, 0)">
        <circle cx="5" cy="6" r="5" fill="#3178c6"/>
        <text x="15" y="10" fill="#cdd9e5" font-family="'Segoe UI',Ubuntu,Sans-Serif" font-size="11">TypeScript 35.87%</text>
      </g>
      <g transform="translate(0, 25)">
        <circle cx="5" cy="6" r="5" fill="#dea584"/>
        <text x="15" y="10" fill="#cdd9e5" font-family="'Segoe UI',Ubuntu,Sans-Serif" font-size="11">Rust 32.53%</text>
      </g>
      <g transform="translate(0, 50)">
        <circle cx="5" cy="6" r="5" fill="#2d7fbb"/>
        <text x="15" y="10" fill="#cdd9e5" font-family="'Segoe UI',Ubuntu,Sans-Serif" font-size="11">SystemVerilog 22.13%</text>
      </g>
        </g>
        <g transform="translate(150, 0)">
          <g transform="translate(0, 0)">
        <circle cx="5" cy="6" r="5" fill="#008080"/>
        <text x="15" y="10" fill="#cdd9e5" font-family="'Segoe UI',Ubuntu,Sans-Serif" font-size="11">TeX 5.14%</text>
      </g>
      <g transform="translate(0, 25)">
        <circle cx="5" cy="6" r="5" fill="#e34c26"/>
        <text x="15" y="10" fill="#cdd9e5" font-family="'Segoe UI',Ubuntu,Sans-Serif" font-size="11">HTML 4.33%</text>
      </g>
        </g>
      </g>
    </svg>
  </g>
</svg>
