<svg width="300" height="165" viewBox="0 0 300 165" fill="none" xmlns="http://www.w3.org/2000/svg" role="img">
  <title>PCCX AI Most Used Languages</title>
  <rect x="0.5" y="0.5" rx="4.5" height="99%" stroke="#e4e2e2" width="299" fill="#ffffff" stroke-opacity="1"/>
  <g transform="translate(25, 35)">
    <svg fill="#4c71f2" x="0" y="-14" viewBox="0 0 16 16" width="18" height="18"><path d="M1.5 1.75v11.5c0 .138.112.25.25.25h.75v-11.5a.25.25 0 0 0-.25-.25ZM0 1.75C0 .784.784 0 1.75 0h12.5C15.216 0 16 .784 16 1.75v11.5A1.75 1.75 0 0 1 14.25 15h-12.5A1.75 1.75 0 0 1 0 13.25ZM4 3.5a.5.5 0 0 1 .5-.5h7a.5.5 0 0 1 0 1h-7a.5.5 0 0 1-.5-.5Zm0 3a.5.5 0 0 1 .5-.5h5a.5.5 0 0 1 0 1h-5a.5.5 0 0 1-.5-.5Zm0 3a.5.5 0 0 1 .5-.5h3a.5.5 0 0 1 0 1h-3a.5.5 0 0 1-.5-.5Z"/></svg>
    <text fill="#2f80ed" font-family="'Segoe UI',Ubuntu,Sans-Serif" font-size="18" font-weight="600" x="25" y="0">Most Used Languages</text>
  </g>
  <g transform="translate(0, 55)">
    <svg x="25">
      <mask id="bar-mask-l">
        <rect x="0" y="0" width="250" height="8" fill="white" rx="5"/>
      </mask>
      <rect mask="url(#bar-mask-l)" x="0.00" y="0" width="91.33" height="8" fill="#3178c6"/>
      <rect mask="url(#bar-mask-l)" x="91.33" y="0" width="80.58" height="8" fill="#dea584"/>
      <rect mask="url(#bar-mask-l)" x="171.91" y="0" width="56.29" height="8" fill="#2d7fbb"/>
      <rect mask="url(#bar-mask-l)" x="228.20" y="0" width="12.98" height="8" fill="#008080"/>
      <rect mask="url(#bar-mask-l)" x="241.18" y="0" width="8.83" height="8" fill="#3572a5"/>
      <g transform="translate(0, 25)">
        <g transform="translate(0, 0)">
          <g transform="translate(0, 0)">
            <circle cx="5" cy="6" r="5" fill="#3178c6"/>
            <text x="15" y="10" fill="#434d58" font-family="'Segoe UI',Ubuntu,Sans-Serif" font-size="11">TypeScript 36.53%</text>
          </g>
          <g transform="translate(0, 25)">
            <circle cx="5" cy="6" r="5" fill="#dea584"/>
            <text x="15" y="10" fill="#434d58" font-family="'Segoe UI',Ubuntu,Sans-Serif" font-size="11">Rust 32.23%</text>
          </g>
          <g transform="translate(0, 50)">
            <circle cx="5" cy="6" r="5" fill="#2d7fbb"/>
            <text x="15" y="10" fill="#434d58" font-family="'Segoe UI',Ubuntu,Sans-Serif" font-size="11">SystemVerilog 22.51%</text>
          </g>
        </g>
        <g transform="translate(150, 0)">
          <g transform="translate(0, 0)">
            <circle cx="5" cy="6" r="5" fill="#008080"/>
            <text x="15" y="10" fill="#434d58" font-family="'Segoe UI',Ubuntu,Sans-Serif" font-size="11">TeX 5.19%</text>
          </g>
          <g transform="translate(0, 25)">
            <circle cx="5" cy="6" r="5" fill="#3572a5"/>
            <text x="15" y="10" fill="#434d58" font-family="'Segoe UI',Ubuntu,Sans-Serif" font-size="11">Python 3.53%</text>
          </g>
        </g>
      </g>
    </svg>
  </g>
</svg>
